<svg width="17" height="16" viewBox="0 0 17 16" fill="none" xmlns="http://www.w3.org/2000/svg">
<path d="M8.50193 3.5276L7.5928 2.61847L7.5928 2.61847C6.2421 1.26779 4.05221 1.26779 2.70152 2.61848L2.70151 2.61849C1.35086 3.96918 1.35084 6.15896 2.70145 7.50967L2.70146 7.50968L3.96408 8.77235L3.96409 8.77236L8.14809 12.9567L8.50164 13.3103L8.85521 12.9567L14.2855 7.52648L14.2876 7.52433L14.3001 7.51201L14.3001 7.51202L14.3023 7.50986C15.653 6.15916 15.653 3.96927 14.3023 2.61856L14.3023 2.61856C12.9516 1.26789 10.7618 1.26787 9.41106 2.6185L9.41106 2.6185L8.50193 3.5276ZM14.8347 8.08838L8.50166 14.4214L2.14571 8.06545C0.488261 6.40788 0.488416 3.72042 2.14594 2.06289C3.80347 0.405367 6.49084 0.405367 8.14838 2.06289L8.50192 2.41644L8.85547 2.0629C10.513 0.40545 13.2003 0.40547 14.8578 2.06298C16.5151 3.72028 16.5153 6.4072 14.8585 8.06476C14.8583 8.06499 14.8581 8.06521 14.8578 8.06544L14.8361 8.08701L14.8347 8.08838Z" />
    <style>
        path {
            fill: #6781F7;
            stroke: #6781F7;
        }
    </style>
</svg>
