<svg id="kek" width="25" height="25" viewBox="0 0 25 25" fill="none" xmlns="http://www.w3.org/2000/svg">
<path d="M15.625 5.46874C15.6279 4.94468 15.499 4.4283 15.2502 3.9671C15.0013 3.5059 14.6404 3.1147 14.2007 2.8295C13.7611 2.54429 13.2568 2.37423 12.7342 2.33497C12.2116 2.29571 11.6875 2.38851 11.2102 2.60482C10.7328 2.82114 10.3175 3.15403 10.0025 3.57286C9.68755 3.99169 9.48294 4.48302 9.40755 5.00164C9.33216 5.52025 9.38841 6.0495 9.57112 6.54068C9.75383 7.03187 10.0571 7.46921 10.4531 7.81249C10.1169 8.10389 9.84685 8.46372 9.66092 8.86791C9.47499 9.27211 9.37751 9.71134 9.375 10.1562C9.375 10.3634 9.45731 10.5622 9.60382 10.7087C9.75034 10.8552 9.94905 10.9375 10.1562 10.9375C10.3634 10.9375 10.5622 10.8552 10.7087 10.7087C10.8552 10.5622 10.9375 10.3634 10.9375 10.1562C10.9375 9.74183 11.1021 9.34441 11.3951 9.05138C11.6882 8.75836 12.0856 8.59374 12.5 8.59374C12.9144 8.59374 13.3118 8.75836 13.6049 9.05138C13.8979 9.34441 14.0625 9.74183 14.0625 10.1562C14.0625 10.3634 14.1448 10.5622 14.2913 10.7087C14.4378 10.8552 14.6365 10.9375 14.8437 10.9375C15.0509 10.9375 15.2497 10.8552 15.3962 10.7087C15.5427 10.5622 15.625 10.3634 15.625 10.1562C15.6225 9.71134 15.525 9.27211 15.3391 8.86791C15.1532 8.46372 14.8831 8.10389 14.5469 7.81249C14.8831 7.52108 15.1532 7.16125 15.3391 6.75706C15.525 6.35287 15.6225 5.91363 15.625 5.46874ZM10.9375 5.46874C10.9375 5.1597 11.0291 4.85761 11.2008 4.60066C11.3725 4.34371 11.6165 4.14344 11.9021 4.02517C12.1876 3.90691 12.5017 3.87597 12.8048 3.93626C13.1079 3.99655 13.3863 4.14536 13.6049 4.36388C13.8234 4.5824 13.9722 4.86081 14.0325 5.16391C14.0928 5.467 14.0618 5.78117 13.9436 6.06668C13.8253 6.35219 13.625 6.59622 13.3681 6.76791C13.1111 6.9396 12.809 7.03124 12.5 7.03124C12.0856 7.03124 11.6882 6.86662 11.3951 6.57359C11.1021 6.28056 10.9375 5.88314 10.9375 5.46874Z" fill="#6781F7"/>
<path d="M8.59375 17.1875C8.59669 16.6634 8.46779 16.147 8.21891 15.6858C7.97003 15.2246 7.60915 14.8334 7.16949 14.5482C6.72983 14.263 6.22551 14.093 5.70291 14.0537C5.18032 14.0144 4.65624 14.1072 4.17891 14.3236C3.70157 14.5399 3.2863 14.8728 2.9713 15.2916C2.6563 15.7104 2.4517 16.2018 2.3763 16.7204C2.30091 17.239 2.35716 17.7682 2.53987 18.2594C2.72258 18.7506 3.02588 19.1879 3.42188 19.5312L3.25781 19.664C2.96771 19.9545 2.73766 20.2992 2.58082 20.6786C2.42399 21.0579 2.34343 21.4645 2.34375 21.875C2.34375 22.0822 2.42606 22.2809 2.57257 22.4274C2.71909 22.5739 2.9178 22.6562 3.125 22.6562C3.3322 22.6562 3.53092 22.5739 3.67743 22.4274C3.82394 22.2809 3.90625 22.0822 3.90625 21.875C3.90625 21.4606 4.07087 21.0631 4.3639 20.7701C4.65692 20.4771 5.05435 20.3125 5.46875 20.3125C5.88315 20.3125 6.28058 20.4771 6.57361 20.7701C6.86663 21.0631 7.03125 21.4606 7.03125 21.875C7.03125 22.0822 7.11356 22.2809 7.26007 22.4274C7.40659 22.5739 7.6053 22.6562 7.8125 22.6562C8.0197 22.6562 8.21841 22.5739 8.36493 22.4274C8.51144 22.2809 8.59375 22.0822 8.59375 21.875C8.59124 21.4301 8.49376 20.9908 8.30783 20.5866C8.12191 20.1825 7.85181 19.8226 7.51563 19.5312C7.85181 19.2398 8.12191 18.88 8.30783 18.4758C8.49376 18.0716 8.59124 17.6324 8.59375 17.1875ZM5.46875 15.625C5.77778 15.625 6.07988 15.7166 6.33683 15.8883C6.59378 16.06 6.79405 16.304 6.91231 16.5895C7.03057 16.875 7.06152 17.1892 7.00123 17.4923C6.94094 17.7954 6.79212 18.0738 6.57361 18.2923C6.35509 18.5108 6.07667 18.6597 5.77358 18.7199C5.47048 18.7802 5.15632 18.7493 4.87081 18.631C4.5853 18.5128 4.34127 18.3125 4.16958 18.0556C3.99789 17.7986 3.90625 17.4965 3.90625 17.1875C3.90625 16.7731 4.07087 16.3756 4.3639 16.0826C4.65692 15.7896 5.05435 15.625 5.46875 15.625Z" fill="#6781F7"/>
<path d="M21.5781 19.5313C22.0595 19.1141 22.4018 18.5597 22.5593 17.9424C22.7167 17.3252 22.6818 16.6745 22.4591 16.0777C22.2364 15.4808 21.8367 14.9663 21.3134 14.603C20.7901 14.2397 20.1683 14.045 19.5312 14.045C18.8942 14.045 18.2724 14.2397 17.7491 14.603C17.2258 14.9663 16.8261 15.4808 16.6034 16.0777C16.3807 16.6745 16.3458 17.3252 16.5032 17.9424C16.6607 18.5597 17.003 19.1141 17.4844 19.5313C17.1482 19.8228 16.8781 20.1826 16.6922 20.5868C16.5062 20.991 16.4088 21.4302 16.4062 21.8751C16.4062 22.0823 16.4886 22.281 16.6351 22.4275C16.7816 22.574 16.9803 22.6563 17.1875 22.6563C17.3947 22.6563 17.5934 22.574 17.7399 22.4275C17.8864 22.281 17.9688 22.0823 17.9688 21.8751C17.9688 21.4607 18.1334 21.0633 18.4264 20.7702C18.7194 20.4772 19.1168 20.3126 19.5312 20.3126C19.9457 20.3126 20.3431 20.4772 20.6361 20.7702C20.9291 21.0633 21.0938 21.4607 21.0938 21.8751C21.0938 22.0823 21.1761 22.281 21.3226 22.4275C21.4691 22.574 21.6678 22.6563 21.875 22.6563C22.0822 22.6563 22.2809 22.574 22.4274 22.4275C22.5739 22.281 22.6562 22.0823 22.6562 21.8751C22.6537 21.4302 22.5563 20.991 22.3703 20.5868C22.1844 20.1826 21.9143 19.8228 21.5781 19.5313ZM17.9688 17.1876C17.9688 16.8786 18.0604 16.5765 18.2321 16.3195C18.4038 16.0626 18.6478 15.8623 18.9333 15.744C19.2188 15.6258 19.533 15.5948 19.8361 15.6551C20.1392 15.7154 20.4176 15.8642 20.6361 16.0827C20.8546 16.3013 21.0034 16.5797 21.0637 16.8828C21.124 17.1859 21.0931 17.5 20.9748 17.7855C20.8566 18.071 20.6563 18.3151 20.3993 18.4868C20.1424 18.6585 19.8403 18.7501 19.5312 18.7501C19.1168 18.7501 18.7194 18.5855 18.4264 18.2925C18.1334 17.9994 17.9688 17.602 17.9688 17.1876Z" fill="#6781F7"/>
<path d="M14.0625 16.4062H13.2812V12.5C13.2812 12.2928 13.1989 12.0941 13.0524 11.9476C12.9059 11.8011 12.7072 11.7188 12.5 11.7188C12.2928 11.7188 12.0941 11.8011 11.9476 11.9476C11.8011 12.0941 11.7187 12.2928 11.7187 12.5V16.4062H10.9375C10.7303 16.4062 10.5316 16.4886 10.3851 16.6351C10.2386 16.7816 10.1562 16.9803 10.1562 17.1875C10.1562 17.3947 10.2386 17.5934 10.3851 17.7399C10.5316 17.8864 10.7303 17.9688 10.9375 17.9688H14.0625C14.2697 17.9688 14.4684 17.8864 14.6149 17.7399C14.7614 17.5934 14.8437 17.3947 14.8437 17.1875C14.8437 16.9803 14.7614 16.7816 14.6149 16.6351C14.4684 16.4886 14.2697 16.4062 14.0625 16.4062Z" fill="#6781F7"/>
<style>
    path {
        fill: #8B97AE;
    }
</style>
</svg>
